# xmcd
#
# Track frame offsets:
#	150
#	12692
#	29474
#	42724
#	60953
#	75962
#	93135
#	109686
#	123619
#
# Disc length: 1876
#
# Revision: 3
# Processed by: cddbd v1.5.1PL0 Copyright (c) Steve Scherf et al.
# Submitted via: DiscPlay 4.0.3
# Normalized: r1:DSETVAR2;r2:TSWAP
#
DISCID=6b075209
DTITLE=Various Artist - Various UNI 98-02
DYEAR=1900
DGENRE=
TTITLE0=Randy Travis - Out Of My Bones
TTITLE1=Nitty Gritty Dirt Band - Bang Bang Bang
TTITLE2=Gary Allan - It Would Be You
TTITLE3=Keith Harling - Papa Bear
TTITLE4=Kris Tyler - I'm IN Trouble Now
TTITLE5=Chely Wright - I Already Do
TTITLE6=Mark Chesnut - I Might Even Quit Lovin' You
TTITLE7=Shane Stockton - What If I'm Alright
TTITLE8=Chris Knight - Framed
EXTD=
EXTT0=
EXTT1=
EXTT2=
EXTT3=
EXTT4=
EXTT5=
EXTT6=
EXTT7=
EXTT8=
PLAYORDER=
